<?xml version="1.0" encoding="UTF-8"?>
<svg version="1.1" xmlns="http://www.w3.org/2000/svg" width="64" height="64">
<path d="M0 0 C5.13439215 2.42188309 8.03158129 5.75454902 10 11 C10.69082346 15.45197341 10.54574268 17.19844044 8 20.9375 C3.91492039 23.74599223 1.88778119 23.47301108 -3 23 C-3.99 22.67 -4.98 22.34 -6 22 C-6.54938232 22.57556641 -7.09876465 23.15113281 -7.66479492 23.74414062 C-10.1592118 26.34243675 -12.67291654 28.92122221 -15.1875 31.5 C-16.05181641 32.40621094 -16.91613281 33.31242187 -17.80664062 34.24609375 C-18.64775391 35.10332031 -19.48886719 35.96054687 -20.35546875 36.84375 C-21.51018677 38.03774414 -21.51018677 38.03774414 -22.68823242 39.25585938 C-25 41 -25 41 -27.7277832 41.32226562 C-30 41 -30 41 -31 40 C-31.35840222 37.67038557 -31.68848712 35.33634657 -32 33 C-32.31966139 31.33065717 -32.64731066 29.6626783 -33 28 C-31.35 27.67 -29.7 27.34 -28 27 C-27.67 25.35 -27.34 23.7 -27 22 C-24.33333333 22 -21.66666667 22 -19 22 C-16.36678769 20.45768993 -14.53462086 18.63746704 -13 16 C-12.93640796 13.34185282 -13.30846579 10.96099752 -13.7578125 8.34375 C-14 6 -14 6 -12.6875 2.9375 C-9.24606507 -1.01377714 -4.91292083 -0.57994006 0 0 Z M-6 8 C-4.75023244 11.65316671 -4.32901247 12.78065836 -1 15 C-0.01 15 0.98 15 2 15 C0.75023244 11.34683329 0.32901247 10.21934164 -3 8 C-3.99 8 -4.98 8 -6 8 Z " fill="#3FC056" transform="translate(44,9)"/>
</svg>
